<svg width="33" height="26" viewBox="0 0 33 26" fill="none" xmlns="http://www.w3.org/2000/svg">
<g clip-path="url(#clip0_472_103)">
<path d="M32.8081 0.797922L3.56325 0.797922C1.8631 0.797922 0.484848 -0.987241 0.484848 0.797922V25.0403C0.484848 26.8255 1.8631 25.0403 3.56325 25.0403H29.7297C31.4298 25.0403 32.8081 26.8255 32.8081 25.0403V4.03025C32.8081 2.24508 34.5082 0.797922 32.8081 0.797922Z" fill="white"/>
<path fill-rule="evenodd" clip-rule="evenodd" d="M0.484848 0.797913H6.64165V7.26256H0.484848V0.797913ZM9.72006 0.797913H15.8769V7.26256H9.72006V0.797913ZM0.484848 10.4949H6.64165V16.9595H0.484848V10.4949ZM9.72006 10.4949H15.8769V16.9595H9.72006V10.4949ZM15.8769 0.797913H32.8081V4.03024H15.8769V0.797913ZM15.8769 7.26256H32.8081V10.4949H15.8769V7.26256Z" fill="#005CB2"/>
<path fill-rule="evenodd" clip-rule="evenodd" d="M0.484848 13.7272H32.8081V16.9595H0.484848V13.7272ZM6.64165 13.7272H9.72006V16.9595H6.64165V13.7272ZM0.484848 20.1918H32.8081V23.4241H0.484848V20.1918Z" fill="#005CB2"/>
</g>
<defs>
<clipPath id="clip0_472_103">
<rect width="32.3232" height="24.2424" fill="white" transform="translate(0.484848 0.797913)"/>
</clipPath>
</defs>
</svg>
