<svg width="33" height="33" viewBox="0 0 33 33" fill="none" xmlns="http://www.w3.org/2000/svg">
<rect x="0.484848" y="0.686829" width="32.3232" height="32.3232" rx="16.1616" fill="url(#paint0_radial_472_59)"/>
<rect x="0.484848" y="0.686829" width="32.3232" height="32.3232" rx="16.1616" fill="url(#paint1_radial_472_59)" fill-opacity="0.2"/>
<path d="M13.2803 16.8489C13.2803 14.9893 14.7873 13.4814 16.6469 13.4814C18.5064 13.4814 20.0143 14.9893 20.0143 16.8489C20.0143 18.7084 18.5064 20.2163 16.6469 20.2163C14.7873 20.2163 13.2803 18.7084 13.2803 16.8489V16.8489ZM11.4599 16.8489C11.4599 19.7136 13.7821 22.0358 16.6469 22.0358C19.5116 22.0358 21.8338 19.7136 21.8338 16.8489C21.8338 13.9841 19.5116 11.6619 16.6469 11.6619C13.7821 11.6619 11.46 13.9839 11.46 16.8489H11.4599ZM20.8271 11.4562C20.827 11.696 20.898 11.9304 21.0311 12.1298C21.1642 12.3292 21.3535 12.4846 21.5749 12.5764C21.7964 12.6683 22.0401 12.6924 22.2753 12.6457C22.5104 12.599 22.7264 12.4837 22.896 12.3142C23.0656 12.1447 23.1812 11.9288 23.228 11.6937C23.2749 11.4586 23.251 11.2148 23.1593 10.9933C23.0677 10.7718 22.9124 10.5824 22.7131 10.4491C22.5138 10.3158 22.2795 10.2446 22.0397 10.2445H22.0392C21.7179 10.2447 21.4097 10.3724 21.1825 10.5996C20.9552 10.8268 20.8274 11.1349 20.8271 11.4562V11.4562ZM12.5659 25.0712C11.5811 25.0264 11.0458 24.8623 10.69 24.7238C10.2184 24.5402 9.88191 24.3215 9.52812 23.9682C9.17433 23.6149 8.95533 23.2787 8.77253 22.8071C8.63386 22.4515 8.46982 21.916 8.42505 20.9312C8.37607 19.8664 8.3663 19.5466 8.3663 16.849C8.3663 14.1515 8.37688 13.8325 8.42505 12.7668C8.4699 11.782 8.63516 11.2476 8.77253 10.891C8.95614 10.4193 9.17481 10.0828 9.52812 9.72905C9.88143 9.37526 10.2176 9.15626 10.69 8.97347C11.0456 8.83479 11.5811 8.67075 12.5659 8.62598C13.6307 8.57701 13.9505 8.56723 16.6469 8.56723C19.3432 8.56723 19.6634 8.57765 20.7291 8.62614C21.7139 8.67099 22.2483 8.83625 22.6049 8.97363C23.0765 9.15642 23.413 9.37591 23.7668 9.72921C24.1206 10.0825 24.3388 10.4195 24.5224 10.8911C24.6611 11.2467 24.8251 11.7821 24.8699 12.767C24.9189 13.8327 24.9287 14.1516 24.9287 16.8492C24.9287 19.5467 24.9189 19.8657 24.8699 20.9314C24.8251 21.9162 24.6602 22.4515 24.5224 22.8072C24.3388 23.2789 24.1201 23.6153 23.7668 23.9683C23.4135 24.3213 23.0765 24.5403 22.6049 24.7239C22.2494 24.8626 21.7139 25.0266 20.7291 25.0714C19.6643 25.1204 19.3444 25.1302 16.6469 25.1302C13.9493 25.1302 13.6303 25.1204 12.5659 25.0714V25.0712ZM12.4823 6.80861C11.4069 6.85758 10.6721 7.02809 10.0304 7.2778C9.36617 7.53567 8.80316 7.88162 8.24096 8.44294C7.67875 9.00425 7.33369 9.56735 7.07582 10.2323C6.82611 10.8745 6.6556 11.6089 6.60663 12.6842C6.55685 13.7613 6.54546 14.1056 6.54546 16.8489C6.54546 19.5921 6.55685 19.9364 6.60663 21.0135C6.6556 22.0889 6.82611 22.8232 7.07582 23.4654C7.33369 24.1296 7.67883 24.6937 8.24096 25.2548C8.80308 25.8158 9.36537 26.1613 10.0304 26.4199C10.6733 26.6696 11.4069 26.8401 12.4823 26.8891C13.5599 26.9381 13.9036 26.9503 16.6469 26.9503C19.3901 26.9503 19.7344 26.9389 20.8115 26.8891C21.8869 26.8401 22.6212 26.6696 23.2634 26.4199C23.9276 26.1613 24.4906 25.8161 25.0528 25.2548C25.615 24.6935 25.9593 24.1296 26.2179 23.4654C26.4676 22.8232 26.6389 22.0888 26.6871 21.0135C26.7361 19.9356 26.7475 19.5921 26.7475 16.8489C26.7475 14.1056 26.7361 13.7613 26.6871 12.6842C26.6381 11.6088 26.4676 10.8741 26.2179 10.2323C25.9593 9.56816 25.6141 9.00514 25.0528 8.44294C24.4915 7.88073 23.9276 7.53567 23.2642 7.2778C22.6212 7.02809 21.8868 6.85677 20.8123 6.80861C19.7351 6.7594 19.3909 6.74744 16.6481 6.74744C13.9053 6.74744 13.5603 6.75883 12.4827 6.80861" fill="white"/>
<defs>
<radialGradient id="paint0_radial_472_59" cx="0" cy="0" r="1" gradientUnits="userSpaceOnUse" gradientTransform="translate(2.57677 32.302) scale(41.0385)">
<stop offset="0.09" stop-color="#FA8F21"/>
<stop offset="0.78" stop-color="#D82D7E"/>
</radialGradient>
<radialGradient id="paint1_radial_472_59" cx="0" cy="0" r="1" gradientUnits="userSpaceOnUse" gradientTransform="translate(16.6465 32) scale(25.2525)">
<stop offset="0.713542" stop-color="#8C3AAA" stop-opacity="0"/>
<stop offset="1" stop-color="#8C3AAA"/>
</radialGradient>
</defs>
</svg>
