<svg width="21" height="21" viewBox="0 0 21 21" fill="none" xmlns="http://www.w3.org/2000/svg">
<path d="M7.67089 17.5278C5.96873 17.5278 4.43417 16.5024 3.78267 14.9299C3.13118 13.3573 3.49103 11.5472 4.69446 10.3434L6.48065 8.5572L7.67089 9.74744L5.88553 11.5328C5.24754 12.1708 4.99837 13.1007 5.23189 13.9722C5.46542 14.8437 6.14615 15.5245 7.01767 15.758C7.88919 15.9915 8.81909 15.7423 9.45708 15.1043L11.2424 13.319L12.4327 14.5101L10.6473 16.2954C9.8595 17.0871 8.78777 17.5308 7.67089 17.5278ZM8.26601 13.9141L7.07577 12.7239L13.0278 6.77185L14.218 7.96208L8.26685 13.9133L8.26601 13.9141ZM14.814 12.1287L13.6229 10.9385L15.4083 9.15316C16.0549 8.51707 16.3108 7.58301 16.0785 6.70617C15.8462 5.82934 15.1615 5.14445 14.2847 4.91195C13.4079 4.67946 12.4738 4.93508 11.8376 5.58161L10.0514 7.36696L8.86112 6.17673L10.6473 4.39053C12.293 2.75919 14.9478 2.765 16.5863 4.40354C18.2249 6.04207 18.2307 8.69686 16.5993 10.3426L14.814 12.1279V12.1287Z" fill="#79819A"/>
</svg>
