<svg width="21" height="21" viewBox="0 0 21 21" fill="none" xmlns="http://www.w3.org/2000/svg">
<path d="M10.6465 18.4848C9.5833 17.5779 8.59782 16.5837 7.70036 15.5126C6.35355 13.904 4.75423 11.5084 4.75423 9.22555C4.75303 6.84133 6.18878 4.69137 8.39149 3.77892C10.5942 2.86646 13.1297 3.37138 14.8148 5.05804C15.923 6.16125 16.5437 7.6619 16.5388 9.22555C16.5388 11.5084 14.9394 13.904 13.5926 15.5126C12.6952 16.5837 11.7097 17.5779 10.6465 18.4848ZM10.6465 6.7003C9.7443 6.7003 8.91064 7.18161 8.45955 7.96292C8.00846 8.74424 8.00846 9.70686 8.45955 10.4882C8.91064 11.2695 9.7443 11.7508 10.6465 11.7508C12.0411 11.7508 13.1717 10.6202 13.1717 9.22555C13.1717 7.83089 12.0411 6.7003 10.6465 6.7003Z" fill="#79819A"/>
</svg>
