<svg width="21" height="21" viewBox="0 0 21 21" fill="none" xmlns="http://www.w3.org/2000/svg">
<path d="M16.5366 17.3602C9.35508 17.3704 3.90476 11.8548 3.91244 4.73609C3.91244 4.2712 4.2893 3.89223 4.75419 3.89223H6.97587C7.39302 3.89223 7.74739 4.19873 7.80864 4.61136C7.95545 5.60031 8.24338 6.56308 8.66368 7.47026L8.75018 7.65696C8.87045 7.91656 8.78893 8.22501 8.5561 8.39128C7.86807 8.88262 7.60513 9.87165 8.14113 10.6434C8.81376 11.6118 9.66163 12.4595 10.6298 13.1318C11.4015 13.6677 12.3904 13.4047 12.8817 12.7168C13.0481 12.4839 13.3567 12.4023 13.6165 12.5227L13.8023 12.6087C14.7096 13.029 15.6724 13.317 16.6614 13.4637C17.0741 13.525 17.3804 13.8793 17.3804 14.2965V16.5185C17.3804 16.9834 17.0027 17.3602 16.5378 17.3602L16.5366 17.3602Z" fill="#79819A"/>
</svg>
